<mxfile host="65bd71144e">
    <diagram name="Page-1" id="61QQNYsOokvxHtRcwMJi">
        <mxGraphModel dx="2092" dy="720" grid="1" gridSize="10" guides="1" tooltips="1" connect="1" arrows="1" fold="1" page="1" pageScale="1" pageWidth="850" pageHeight="1100" math="0" shadow="0">
            <root>
                <mxCell id="0"/>
                <mxCell id="1" parent="0"/>
                <mxCell id="XoRHC_QbsA-2lky1hKC4-15" value="UiComponent" style="swimlane;fontStyle=0;childLayout=stackLayout;horizontal=1;startSize=26;fillColor=none;horizontalStack=0;resizeParent=1;resizeParentMax=0;resizeLast=0;collapsible=1;marginBottom=0;whiteSpace=wrap;html=1;" parent="1" vertex="1">
                    <mxGeometry x="160" y="340" width="270" height="208" as="geometry">
                        <mxRectangle x="240" y="480" width="110" height="30" as="alternateBounds"/>
                    </mxGeometry>
                </mxCell>
                <mxCell id="XoRHC_QbsA-2lky1hKC4-16" value="Rect rect" style="text;strokeColor=none;fillColor=none;align=left;verticalAlign=top;spacingLeft=4;spacingRight=4;overflow=hidden;rotatable=0;points=[[0,0.5],[1,0.5]];portConstraint=eastwest;whiteSpace=wrap;html=1;" parent="XoRHC_QbsA-2lky1hKC4-15" vertex="1">
                    <mxGeometry y="26" width="270" height="26" as="geometry"/>
                </mxCell>
                <mxCell id="XoRHC_QbsA-2lky1hKC4-58" value="Anchor2 anchor" style="text;strokeColor=none;fillColor=none;align=left;verticalAlign=top;spacingLeft=4;spacingRight=4;overflow=hidden;rotatable=0;points=[[0,0.5],[1,0.5]];portConstraint=eastwest;whiteSpace=wrap;html=1;" parent="XoRHC_QbsA-2lky1hKC4-15" vertex="1">
                    <mxGeometry y="52" width="270" height="26" as="geometry"/>
                </mxCell>
                <mxCell id="XoRHC_QbsA-2lky1hKC4-107" value="bool visible" style="text;strokeColor=none;fillColor=none;align=left;verticalAlign=top;spacingLeft=4;spacingRight=4;overflow=hidden;rotatable=0;points=[[0,0.5],[1,0.5]];portConstraint=eastwest;whiteSpace=wrap;html=1;" parent="XoRHC_QbsA-2lky1hKC4-15" vertex="1">
                    <mxGeometry y="78" width="270" height="26" as="geometry"/>
                </mxCell>
                <mxCell id="XoRHC_QbsA-2lky1hKC4-167" value="Draw(Boundingbox)" style="text;strokeColor=none;fillColor=none;align=left;verticalAlign=top;spacingLeft=4;spacingRight=4;overflow=hidden;rotatable=0;points=[[0,0.5],[1,0.5]];portConstraint=eastwest;whiteSpace=wrap;html=1;" parent="XoRHC_QbsA-2lky1hKC4-15" vertex="1">
                    <mxGeometry y="104" width="270" height="26" as="geometry"/>
                </mxCell>
                <mxCell id="Bb4IU9_xLz3iMsSqxkmi-11" value="Component&lt;span style=&quot;background-color: transparent; color: light-dark(rgb(0, 0, 0), rgb(255, 255, 255));&quot;&gt;[] childrens&lt;/span&gt;" style="text;strokeColor=none;fillColor=none;align=left;verticalAlign=top;spacingLeft=4;spacingRight=4;overflow=hidden;rotatable=0;points=[[0,0.5],[1,0.5]];portConstraint=eastwest;whiteSpace=wrap;html=1;" parent="XoRHC_QbsA-2lky1hKC4-15" vertex="1">
                    <mxGeometry y="130" width="270" height="26" as="geometry"/>
                </mxCell>
                <mxCell id="Bb4IU9_xLz3iMsSqxkmi-10" value="void display() (displays itself then children)" style="text;strokeColor=none;fillColor=none;align=left;verticalAlign=top;spacingLeft=4;spacingRight=4;overflow=hidden;rotatable=0;points=[[0,0.5],[1,0.5]];portConstraint=eastwest;whiteSpace=wrap;html=1;" parent="XoRHC_QbsA-2lky1hKC4-15" vertex="1">
                    <mxGeometry y="156" width="270" height="26" as="geometry"/>
                </mxCell>
                <mxCell id="mE4-6PGoF6IPBuEBk4CF-1" value="bool&amp;nbsp;&lt;span style=&quot;background-color: transparent; color: light-dark(rgb(0, 0, 0), rgb(255, 255, 255));&quot;&gt;resizable&lt;/span&gt;" style="text;strokeColor=none;fillColor=none;align=left;verticalAlign=top;spacingLeft=4;spacingRight=4;overflow=hidden;rotatable=0;points=[[0,0.5],[1,0.5]];portConstraint=eastwest;whiteSpace=wrap;html=1;" parent="XoRHC_QbsA-2lky1hKC4-15" vertex="1">
                    <mxGeometry y="182" width="270" height="26" as="geometry"/>
                </mxCell>
                <mxCell id="XoRHC_QbsA-2lky1hKC4-19" value="R&lt;span style=&quot;background-color: transparent; color: light-dark(rgb(0, 0, 0), rgb(255, 255, 255));&quot;&gt;ect&lt;/span&gt;" style="swimlane;fontStyle=0;childLayout=stackLayout;horizontal=1;startSize=26;fillColor=none;horizontalStack=0;resizeParent=1;resizeParentMax=0;resizeLast=0;collapsible=1;marginBottom=0;whiteSpace=wrap;html=1;strokeColor=default;" parent="1" vertex="1">
                    <mxGeometry x="-50" y="450" width="140" height="78" as="geometry"/>
                </mxCell>
                <mxCell id="XoRHC_QbsA-2lky1hKC4-20" value="Vector2 position" style="text;strokeColor=none;fillColor=none;align=left;verticalAlign=top;spacingLeft=4;spacingRight=4;overflow=hidden;rotatable=0;points=[[0,0.5],[1,0.5]];portConstraint=eastwest;whiteSpace=wrap;html=1;" parent="XoRHC_QbsA-2lky1hKC4-19" vertex="1">
                    <mxGeometry y="26" width="140" height="26" as="geometry"/>
                </mxCell>
                <mxCell id="XoRHC_QbsA-2lky1hKC4-21" value="Vector2 size" style="text;strokeColor=none;fillColor=none;align=left;verticalAlign=top;spacingLeft=4;spacingRight=4;overflow=hidden;rotatable=0;points=[[0,0.5],[1,0.5]];portConstraint=eastwest;whiteSpace=wrap;html=1;" parent="XoRHC_QbsA-2lky1hKC4-19" vertex="1">
                    <mxGeometry y="52" width="140" height="26" as="geometry"/>
                </mxCell>
                <mxCell id="XoRHC_QbsA-2lky1hKC4-26" style="edgeStyle=entityRelationEdgeStyle;rounded=0;orthogonalLoop=1;jettySize=auto;html=1;entryX=1;entryY=0.5;entryDx=0;entryDy=0;" parent="1" source="XoRHC_QbsA-2lky1hKC4-16" target="XoRHC_QbsA-2lky1hKC4-20" edge="1">
                    <mxGeometry relative="1" as="geometry"/>
                </mxCell>
                <mxCell id="XoRHC_QbsA-2lky1hKC4-27" value="Vector2" style="swimlane;fontStyle=0;childLayout=stackLayout;horizontal=1;startSize=26;fillColor=none;horizontalStack=0;resizeParent=1;resizeParentMax=0;resizeLast=0;collapsible=1;marginBottom=0;whiteSpace=wrap;html=1;" parent="1" vertex="1">
                    <mxGeometry x="-270" y="460" width="140" height="78" as="geometry"/>
                </mxCell>
                <mxCell id="XoRHC_QbsA-2lky1hKC4-28" value="float x" style="text;strokeColor=none;fillColor=none;align=left;verticalAlign=top;spacingLeft=4;spacingRight=4;overflow=hidden;rotatable=0;points=[[0,0.5],[1,0.5]];portConstraint=eastwest;whiteSpace=wrap;html=1;" parent="XoRHC_QbsA-2lky1hKC4-27" vertex="1">
                    <mxGeometry y="26" width="140" height="26" as="geometry"/>
                </mxCell>
                <mxCell id="XoRHC_QbsA-2lky1hKC4-29" value="float y" style="text;strokeColor=none;fillColor=none;align=left;verticalAlign=top;spacingLeft=4;spacingRight=4;overflow=hidden;rotatable=0;points=[[0,0.5],[1,0.5]];portConstraint=eastwest;whiteSpace=wrap;html=1;" parent="XoRHC_QbsA-2lky1hKC4-27" vertex="1">
                    <mxGeometry y="52" width="140" height="26" as="geometry"/>
                </mxCell>
                <mxCell id="XoRHC_QbsA-2lky1hKC4-43" value="Anchor2" style="swimlane;fontStyle=0;childLayout=stackLayout;horizontal=1;startSize=26;fillColor=none;horizontalStack=0;resizeParent=1;resizeParentMax=0;resizeLast=0;collapsible=1;marginBottom=0;whiteSpace=wrap;html=1;" parent="1" vertex="1">
                    <mxGeometry x="520" y="451" width="190" height="78" as="geometry"/>
                </mxCell>
                <mxCell id="XoRHC_QbsA-2lky1hKC4-44" value="Anchor horizontalAnchor" style="text;strokeColor=none;fillColor=none;align=left;verticalAlign=top;spacingLeft=4;spacingRight=4;overflow=hidden;rotatable=0;points=[[0,0.5],[1,0.5]];portConstraint=eastwest;whiteSpace=wrap;html=1;" parent="XoRHC_QbsA-2lky1hKC4-43" vertex="1">
                    <mxGeometry y="26" width="190" height="26" as="geometry"/>
                </mxCell>
                <mxCell id="XoRHC_QbsA-2lky1hKC4-45" value="Anchor verticalAnchor" style="text;strokeColor=none;fillColor=none;align=left;verticalAlign=top;spacingLeft=4;spacingRight=4;overflow=hidden;rotatable=0;points=[[0,0.5],[1,0.5]];portConstraint=eastwest;whiteSpace=wrap;html=1;" parent="XoRHC_QbsA-2lky1hKC4-43" vertex="1">
                    <mxGeometry y="52" width="190" height="26" as="geometry"/>
                </mxCell>
                <mxCell id="XoRHC_QbsA-2lky1hKC4-47" value="Enum Anchor" style="swimlane;fontStyle=0;childLayout=stackLayout;horizontal=1;startSize=26;fillColor=none;horizontalStack=0;resizeParent=1;resizeParentMax=0;resizeLast=0;collapsible=1;marginBottom=0;whiteSpace=wrap;html=1;" parent="1" vertex="1">
                    <mxGeometry x="820" y="421" width="140" height="182" as="geometry"/>
                </mxCell>
                <mxCell id="XoRHC_QbsA-2lky1hKC4-48" value="CENTER" style="text;strokeColor=none;fillColor=none;align=left;verticalAlign=top;spacingLeft=4;spacingRight=4;overflow=hidden;rotatable=0;points=[[0,0.5],[1,0.5]];portConstraint=eastwest;whiteSpace=wrap;html=1;" parent="XoRHC_QbsA-2lky1hKC4-47" vertex="1">
                    <mxGeometry y="26" width="140" height="26" as="geometry"/>
                </mxCell>
                <mxCell id="11" value="FILL" style="text;strokeColor=none;fillColor=none;align=left;verticalAlign=top;spacingLeft=4;spacingRight=4;overflow=hidden;rotatable=0;points=[[0,0.5],[1,0.5]];portConstraint=eastwest;whiteSpace=wrap;html=1;" vertex="1" parent="XoRHC_QbsA-2lky1hKC4-47">
                    <mxGeometry y="52" width="140" height="26" as="geometry"/>
                </mxCell>
                <mxCell id="XoRHC_QbsA-2lky1hKC4-49" value="LEFT" style="text;strokeColor=none;fillColor=none;align=left;verticalAlign=top;spacingLeft=4;spacingRight=4;overflow=hidden;rotatable=0;points=[[0,0.5],[1,0.5]];portConstraint=eastwest;whiteSpace=wrap;html=1;" parent="XoRHC_QbsA-2lky1hKC4-47" vertex="1">
                    <mxGeometry y="78" width="140" height="26" as="geometry"/>
                </mxCell>
                <mxCell id="XoRHC_QbsA-2lky1hKC4-50" value="RIGHT" style="text;strokeColor=none;fillColor=none;align=left;verticalAlign=top;spacingLeft=4;spacingRight=4;overflow=hidden;rotatable=0;points=[[0,0.5],[1,0.5]];portConstraint=eastwest;whiteSpace=wrap;html=1;" parent="XoRHC_QbsA-2lky1hKC4-47" vertex="1">
                    <mxGeometry y="104" width="140" height="26" as="geometry"/>
                </mxCell>
                <mxCell id="XoRHC_QbsA-2lky1hKC4-52" value="UP" style="text;strokeColor=none;fillColor=none;align=left;verticalAlign=top;spacingLeft=4;spacingRight=4;overflow=hidden;rotatable=0;points=[[0,0.5],[1,0.5]];portConstraint=eastwest;whiteSpace=wrap;html=1;" parent="XoRHC_QbsA-2lky1hKC4-47" vertex="1">
                    <mxGeometry y="130" width="140" height="26" as="geometry"/>
                </mxCell>
                <mxCell id="XoRHC_QbsA-2lky1hKC4-51" value="DOWN" style="text;strokeColor=none;fillColor=none;align=left;verticalAlign=top;spacingLeft=4;spacingRight=4;overflow=hidden;rotatable=0;points=[[0,0.5],[1,0.5]];portConstraint=eastwest;whiteSpace=wrap;html=1;" parent="XoRHC_QbsA-2lky1hKC4-47" vertex="1">
                    <mxGeometry y="156" width="140" height="26" as="geometry"/>
                </mxCell>
                <mxCell id="XoRHC_QbsA-2lky1hKC4-54" style="edgeStyle=entityRelationEdgeStyle;rounded=0;orthogonalLoop=1;jettySize=auto;html=1;" parent="1" source="XoRHC_QbsA-2lky1hKC4-44" target="XoRHC_QbsA-2lky1hKC4-47" edge="1">
                    <mxGeometry relative="1" as="geometry"/>
                </mxCell>
                <mxCell id="XoRHC_QbsA-2lky1hKC4-55" style="edgeStyle=entityRelationEdgeStyle;rounded=0;orthogonalLoop=1;jettySize=auto;html=1;" parent="1" source="XoRHC_QbsA-2lky1hKC4-45" target="XoRHC_QbsA-2lky1hKC4-47" edge="1">
                    <mxGeometry relative="1" as="geometry"/>
                </mxCell>
                <mxCell id="XoRHC_QbsA-2lky1hKC4-56" style="edgeStyle=entityRelationEdgeStyle;rounded=0;orthogonalLoop=1;jettySize=auto;html=1;" parent="1" source="XoRHC_QbsA-2lky1hKC4-21" target="XoRHC_QbsA-2lky1hKC4-27" edge="1">
                    <mxGeometry relative="1" as="geometry"/>
                </mxCell>
                <mxCell id="XoRHC_QbsA-2lky1hKC4-57" style="edgeStyle=entityRelationEdgeStyle;rounded=0;orthogonalLoop=1;jettySize=auto;html=1;" parent="1" source="XoRHC_QbsA-2lky1hKC4-20" target="XoRHC_QbsA-2lky1hKC4-27" edge="1">
                    <mxGeometry relative="1" as="geometry"/>
                </mxCell>
                <mxCell id="XoRHC_QbsA-2lky1hKC4-59" style="edgeStyle=entityRelationEdgeStyle;rounded=0;orthogonalLoop=1;jettySize=auto;html=1;" parent="1" source="XoRHC_QbsA-2lky1hKC4-58" target="XoRHC_QbsA-2lky1hKC4-43" edge="1">
                    <mxGeometry relative="1" as="geometry"/>
                </mxCell>
                <mxCell id="XoRHC_QbsA-2lky1hKC4-91" value="" style="edgeStyle=orthogonalEdgeStyle;rounded=0;orthogonalLoop=1;jettySize=auto;html=1;" parent="1" source="XoRHC_QbsA-2lky1hKC4-89" target="XoRHC_QbsA-2lky1hKC4-15" edge="1">
                    <mxGeometry relative="1" as="geometry">
                        <mxPoint x="425" y="682" as="targetPoint"/>
                    </mxGeometry>
                </mxCell>
                <mxCell id="XoRHC_QbsA-2lky1hKC4-89" value="Panel" style="swimlane;fontStyle=0;childLayout=stackLayout;horizontal=1;startSize=26;fillColor=none;horizontalStack=0;resizeParent=1;resizeParentMax=0;resizeLast=0;collapsible=1;marginBottom=0;whiteSpace=wrap;html=1;" parent="1" vertex="1">
                    <mxGeometry x="175" y="620" width="240" height="52" as="geometry"/>
                </mxCell>
                <mxCell id="XoRHC_QbsA-2lky1hKC4-90" value="Stylebox styleBox" style="text;strokeColor=none;fillColor=none;align=left;verticalAlign=top;spacingLeft=4;spacingRight=4;overflow=hidden;rotatable=0;points=[[0,0.5],[1,0.5]];portConstraint=eastwest;whiteSpace=wrap;html=1;" parent="XoRHC_QbsA-2lky1hKC4-89" vertex="1">
                    <mxGeometry y="26" width="240" height="26" as="geometry"/>
                </mxCell>
                <mxCell id="XoRHC_QbsA-2lky1hKC4-96" value="StyleBox" style="swimlane;fontStyle=0;childLayout=stackLayout;horizontal=1;startSize=26;fillColor=none;horizontalStack=0;resizeParent=1;resizeParentMax=0;resizeLast=0;collapsible=1;marginBottom=0;whiteSpace=wrap;html=1;" parent="1" vertex="1">
                    <mxGeometry x="-280" y="581" width="240" height="156" as="geometry"/>
                </mxCell>
                <mxCell id="XoRHC_QbsA-2lky1hKC4-97" value="int edgeRadius" style="text;strokeColor=none;fillColor=none;align=left;verticalAlign=top;spacingLeft=4;spacingRight=4;overflow=hidden;rotatable=0;points=[[0,0.5],[1,0.5]];portConstraint=eastwest;whiteSpace=wrap;html=1;" parent="XoRHC_QbsA-2lky1hKC4-96" vertex="1">
                    <mxGeometry y="26" width="240" height="26" as="geometry"/>
                </mxCell>
                <mxCell id="XoRHC_QbsA-2lky1hKC4-122" value="int borderSize" style="text;strokeColor=none;fillColor=none;align=left;verticalAlign=top;spacingLeft=4;spacingRight=4;overflow=hidden;rotatable=0;points=[[0,0.5],[1,0.5]];portConstraint=eastwest;whiteSpace=wrap;html=1;" parent="XoRHC_QbsA-2lky1hKC4-96" vertex="1">
                    <mxGeometry y="52" width="240" height="26" as="geometry"/>
                </mxCell>
                <mxCell id="XoRHC_QbsA-2lky1hKC4-124" value="Color borderColor" style="text;strokeColor=none;fillColor=none;align=left;verticalAlign=top;spacingLeft=4;spacingRight=4;overflow=hidden;rotatable=0;points=[[0,0.5],[1,0.5]];portConstraint=eastwest;whiteSpace=wrap;html=1;" parent="XoRHC_QbsA-2lky1hKC4-96" vertex="1">
                    <mxGeometry y="78" width="240" height="26" as="geometry"/>
                </mxCell>
                <mxCell id="XoRHC_QbsA-2lky1hKC4-125" value="Color mainColor" style="text;strokeColor=none;fillColor=none;align=left;verticalAlign=top;spacingLeft=4;spacingRight=4;overflow=hidden;rotatable=0;points=[[0,0.5],[1,0.5]];portConstraint=eastwest;whiteSpace=wrap;html=1;" parent="XoRHC_QbsA-2lky1hKC4-96" vertex="1">
                    <mxGeometry y="104" width="240" height="26" as="geometry"/>
                </mxCell>
                <mxCell id="XoRHC_QbsA-2lky1hKC4-166" value="Texture image" style="text;strokeColor=none;fillColor=none;align=left;verticalAlign=top;spacingLeft=4;spacingRight=4;overflow=hidden;rotatable=0;points=[[0,0.5],[1,0.5]];portConstraint=eastwest;whiteSpace=wrap;html=1;" parent="XoRHC_QbsA-2lky1hKC4-96" vertex="1">
                    <mxGeometry y="130" width="240" height="26" as="geometry"/>
                </mxCell>
                <mxCell id="XoRHC_QbsA-2lky1hKC4-137" value="" style="edgeStyle=orthogonalEdgeStyle;rounded=0;orthogonalLoop=1;jettySize=auto;html=1;" parent="1" source="XoRHC_QbsA-2lky1hKC4-130" target="XoRHC_QbsA-2lky1hKC4-99" edge="1">
                    <mxGeometry relative="1" as="geometry"/>
                </mxCell>
                <mxCell id="XoRHC_QbsA-2lky1hKC4-148" value="" style="edgeStyle=orthogonalEdgeStyle;rounded=0;orthogonalLoop=1;jettySize=auto;html=1;" parent="1" source="XoRHC_QbsA-2lky1hKC4-99" target="XoRHC_QbsA-2lky1hKC4-141" edge="1">
                    <mxGeometry relative="1" as="geometry"/>
                </mxCell>
                <mxCell id="XoRHC_QbsA-2lky1hKC4-99" value="Button" style="swimlane;fontStyle=0;childLayout=stackLayout;horizontal=1;startSize=26;fillColor=none;horizontalStack=0;resizeParent=1;resizeParentMax=0;resizeLast=0;collapsible=1;marginBottom=0;whiteSpace=wrap;html=1;" parent="1" vertex="1">
                    <mxGeometry x="-60" y="950" width="240" height="208" as="geometry"/>
                </mxCell>
                <mxCell id="XoRHC_QbsA-2lky1hKC4-100" value="Pressed()" style="text;strokeColor=none;fillColor=none;align=left;verticalAlign=top;spacingLeft=4;spacingRight=4;overflow=hidden;rotatable=0;points=[[0,0.5],[1,0.5]];portConstraint=eastwest;whiteSpace=wrap;html=1;" parent="XoRHC_QbsA-2lky1hKC4-99" vertex="1">
                    <mxGeometry y="26" width="240" height="26" as="geometry"/>
                </mxCell>
                <mxCell id="XoRHC_QbsA-2lky1hKC4-104" value="StyleBox pressedStyleBox" style="text;strokeColor=none;fillColor=none;align=left;verticalAlign=top;spacingLeft=4;spacingRight=4;overflow=hidden;rotatable=0;points=[[0,0.5],[1,0.5]];portConstraint=eastwest;whiteSpace=wrap;html=1;" parent="XoRHC_QbsA-2lky1hKC4-99" vertex="1">
                    <mxGeometry y="52" width="240" height="26" as="geometry"/>
                </mxCell>
                <mxCell id="XoRHC_QbsA-2lky1hKC4-103" value="Hovered()" style="text;strokeColor=none;fillColor=none;align=left;verticalAlign=top;spacingLeft=4;spacingRight=4;overflow=hidden;rotatable=0;points=[[0,0.5],[1,0.5]];portConstraint=eastwest;whiteSpace=wrap;html=1;" parent="XoRHC_QbsA-2lky1hKC4-99" vertex="1">
                    <mxGeometry y="78" width="240" height="26" as="geometry"/>
                </mxCell>
                <mxCell id="XoRHC_QbsA-2lky1hKC4-105" value="StyleBox hoveredStyleBox" style="text;strokeColor=none;fillColor=none;align=left;verticalAlign=top;spacingLeft=4;spacingRight=4;overflow=hidden;rotatable=0;points=[[0,0.5],[1,0.5]];portConstraint=eastwest;whiteSpace=wrap;html=1;" parent="XoRHC_QbsA-2lky1hKC4-99" vertex="1">
                    <mxGeometry y="104" width="240" height="26" as="geometry"/>
                </mxCell>
                <mxCell id="XoRHC_QbsA-2lky1hKC4-102" value="Holding()" style="text;strokeColor=none;fillColor=none;align=left;verticalAlign=top;spacingLeft=4;spacingRight=4;overflow=hidden;rotatable=0;points=[[0,0.5],[1,0.5]];portConstraint=eastwest;whiteSpace=wrap;html=1;" parent="XoRHC_QbsA-2lky1hKC4-99" vertex="1">
                    <mxGeometry y="130" width="240" height="26" as="geometry"/>
                </mxCell>
                <mxCell id="XoRHC_QbsA-2lky1hKC4-106" value="StyleBox holdingStyleBox" style="text;strokeColor=none;fillColor=none;align=left;verticalAlign=top;spacingLeft=4;spacingRight=4;overflow=hidden;rotatable=0;points=[[0,0.5],[1,0.5]];portConstraint=eastwest;whiteSpace=wrap;html=1;" parent="XoRHC_QbsA-2lky1hKC4-99" vertex="1">
                    <mxGeometry y="156" width="240" height="26" as="geometry"/>
                </mxCell>
                <mxCell id="Dg74BHV2uURqqnwilg7l-1" value="void OnClickCallback()" style="text;strokeColor=none;fillColor=none;align=left;verticalAlign=top;spacingLeft=4;spacingRight=4;overflow=hidden;rotatable=0;points=[[0,0.5],[1,0.5]];portConstraint=eastwest;whiteSpace=wrap;html=1;" parent="XoRHC_QbsA-2lky1hKC4-99" vertex="1">
                    <mxGeometry y="182" width="240" height="26" as="geometry"/>
                </mxCell>
                <mxCell id="XoRHC_QbsA-2lky1hKC4-109" style="edgeStyle=orthogonalEdgeStyle;rounded=0;orthogonalLoop=1;jettySize=auto;html=1;" parent="1" source="XoRHC_QbsA-2lky1hKC4-90" target="XoRHC_QbsA-2lky1hKC4-96" edge="1">
                    <mxGeometry relative="1" as="geometry"/>
                </mxCell>
                <mxCell id="XoRHC_QbsA-2lky1hKC4-130" value="CheckBox" style="swimlane;fontStyle=0;childLayout=stackLayout;horizontal=1;startSize=26;fillColor=none;horizontalStack=0;resizeParent=1;resizeParentMax=0;resizeLast=0;collapsible=1;marginBottom=0;whiteSpace=wrap;html=1;" parent="1" vertex="1">
                    <mxGeometry x="-60" y="1170" width="240" height="52" as="geometry"/>
                </mxCell>
                <mxCell id="XoRHC_QbsA-2lky1hKC4-131" value="bool enabled" style="text;strokeColor=none;fillColor=none;align=left;verticalAlign=top;spacingLeft=4;spacingRight=4;overflow=hidden;rotatable=0;points=[[0,0.5],[1,0.5]];portConstraint=eastwest;whiteSpace=wrap;html=1;" parent="XoRHC_QbsA-2lky1hKC4-130" vertex="1">
                    <mxGeometry y="26" width="240" height="26" as="geometry"/>
                </mxCell>
                <mxCell id="XoRHC_QbsA-2lky1hKC4-149" style="edgeStyle=orthogonalEdgeStyle;rounded=0;orthogonalLoop=1;jettySize=auto;html=1;" parent="1" source="XoRHC_QbsA-2lky1hKC4-141" target="XoRHC_QbsA-2lky1hKC4-89" edge="1">
                    <mxGeometry relative="1" as="geometry"/>
                </mxCell>
                <mxCell id="XoRHC_QbsA-2lky1hKC4-153" value="" style="edgeStyle=orthogonalEdgeStyle;rounded=0;orthogonalLoop=1;jettySize=auto;html=1;" parent="1" source="XoRHC_QbsA-2lky1hKC4-150" target="XoRHC_QbsA-2lky1hKC4-141" edge="1">
                    <mxGeometry relative="1" as="geometry">
                        <Array as="points">
                            <mxPoint x="460" y="879"/>
                            <mxPoint x="320" y="879"/>
                        </Array>
                    </mxGeometry>
                </mxCell>
                <mxCell id="XoRHC_QbsA-2lky1hKC4-141" value="SelectablePanel" style="swimlane;fontStyle=0;childLayout=stackLayout;horizontal=1;startSize=26;fillColor=none;horizontalStack=0;resizeParent=1;resizeParentMax=0;resizeLast=0;collapsible=1;marginBottom=0;whiteSpace=wrap;html=1;" parent="1" vertex="1">
                    <mxGeometry x="175" y="730" width="240" height="78" as="geometry"/>
                </mxCell>
                <mxCell id="XoRHC_QbsA-2lky1hKC4-142" value="Selected()" style="text;strokeColor=none;fillColor=none;align=left;verticalAlign=top;spacingLeft=4;spacingRight=4;overflow=hidden;rotatable=0;points=[[0,0.5],[1,0.5]];portConstraint=eastwest;whiteSpace=wrap;html=1;" parent="XoRHC_QbsA-2lky1hKC4-141" vertex="1">
                    <mxGeometry y="26" width="240" height="26" as="geometry"/>
                </mxCell>
                <mxCell id="XoRHC_QbsA-2lky1hKC4-143" value="StyleBox selectedStyleBox" style="text;strokeColor=none;fillColor=none;align=left;verticalAlign=top;spacingLeft=4;spacingRight=4;overflow=hidden;rotatable=0;points=[[0,0.5],[1,0.5]];portConstraint=eastwest;whiteSpace=wrap;html=1;" parent="XoRHC_QbsA-2lky1hKC4-141" vertex="1">
                    <mxGeometry y="52" width="240" height="26" as="geometry"/>
                </mxCell>
                <mxCell id="XoRHC_QbsA-2lky1hKC4-150" value="TextField" style="swimlane;fontStyle=0;childLayout=stackLayout;horizontal=1;startSize=26;fillColor=none;horizontalStack=0;resizeParent=1;resizeParentMax=0;resizeLast=0;collapsible=1;marginBottom=0;whiteSpace=wrap;html=1;" parent="1" vertex="1">
                    <mxGeometry x="340" y="950" width="240" height="52" as="geometry"/>
                </mxCell>
                <mxCell id="XoRHC_QbsA-2lky1hKC4-151" value="string text" style="text;strokeColor=none;fillColor=none;align=left;verticalAlign=top;spacingLeft=4;spacingRight=4;overflow=hidden;rotatable=0;points=[[0,0.5],[1,0.5]];portConstraint=eastwest;whiteSpace=wrap;html=1;" parent="XoRHC_QbsA-2lky1hKC4-150" vertex="1">
                    <mxGeometry y="26" width="240" height="26" as="geometry"/>
                </mxCell>
                <mxCell id="Bb4IU9_xLz3iMsSqxkmi-14" style="edgeStyle=orthogonalEdgeStyle;rounded=0;orthogonalLoop=1;jettySize=auto;html=1;" parent="1" source="XoRHC_QbsA-2lky1hKC4-157" target="Bb4IU9_xLz3iMsSqxkmi-9" edge="1">
                    <mxGeometry relative="1" as="geometry"/>
                </mxCell>
                <mxCell id="XoRHC_QbsA-2lky1hKC4-157" value="Window" style="swimlane;fontStyle=0;childLayout=stackLayout;horizontal=1;startSize=26;fillColor=none;horizontalStack=0;resizeParent=1;resizeParentMax=0;resizeLast=0;collapsible=1;marginBottom=0;whiteSpace=wrap;html=1;" parent="1" vertex="1">
                    <mxGeometry x="527.5" y="1270" width="245" height="146" as="geometry"/>
                </mxCell>
                <mxCell id="14" value="string name" style="text;html=1;align=center;verticalAlign=middle;resizable=0;points=[];autosize=1;strokeColor=none;fillColor=none;" vertex="1" parent="XoRHC_QbsA-2lky1hKC4-157">
                    <mxGeometry y="26" width="245" height="30" as="geometry"/>
                </mxCell>
                <mxCell id="16" value="UISplit bar // separate top bar from content" style="text;html=1;align=center;verticalAlign=middle;resizable=0;points=[];autosize=1;strokeColor=none;fillColor=none;" vertex="1" parent="XoRHC_QbsA-2lky1hKC4-157">
                    <mxGeometry y="56" width="245" height="30" as="geometry"/>
                </mxCell>
                <mxCell id="20" value="(first side) Button close" style="text;html=1;align=center;verticalAlign=middle;resizable=0;points=[];autosize=1;strokeColor=none;fillColor=none;" vertex="1" parent="XoRHC_QbsA-2lky1hKC4-157">
                    <mxGeometry y="86" width="245" height="30" as="geometry"/>
                </mxCell>
                <mxCell id="19" value="&lt;span style=&quot;color: rgb(0, 0, 0);&quot;&gt;(first side) Label windowName&lt;/span&gt;" style="text;html=1;align=center;verticalAlign=middle;resizable=0;points=[];autosize=1;strokeColor=none;fillColor=none;" vertex="1" parent="XoRHC_QbsA-2lky1hKC4-157">
                    <mxGeometry y="116" width="245" height="30" as="geometry"/>
                </mxCell>
                <mxCell id="XoRHC_QbsA-2lky1hKC4-165" style="edgeStyle=orthogonalEdgeStyle;rounded=0;orthogonalLoop=1;jettySize=auto;html=1;" parent="1" source="XoRHC_QbsA-2lky1hKC4-161" target="XoRHC_QbsA-2lky1hKC4-15" edge="1">
                    <mxGeometry relative="1" as="geometry">
                        <Array as="points">
                            <mxPoint x="330" y="602"/>
                        </Array>
                    </mxGeometry>
                </mxCell>
                <mxCell id="XoRHC_QbsA-2lky1hKC4-161" value="TextLabel" style="swimlane;fontStyle=0;childLayout=stackLayout;horizontal=1;startSize=26;fillColor=none;horizontalStack=0;resizeParent=1;resizeParentMax=0;resizeLast=0;collapsible=1;marginBottom=0;whiteSpace=wrap;html=1;" parent="1" vertex="1">
                    <mxGeometry x="500" y="550" width="140" height="78" as="geometry">
                        <mxRectangle x="240" y="480" width="110" height="30" as="alternateBounds"/>
                    </mxGeometry>
                </mxCell>
                <mxCell id="XoRHC_QbsA-2lky1hKC4-162" value="string text" style="text;strokeColor=none;fillColor=none;align=left;verticalAlign=top;spacingLeft=4;spacingRight=4;overflow=hidden;rotatable=0;points=[[0,0.5],[1,0.5]];portConstraint=eastwest;whiteSpace=wrap;html=1;" parent="XoRHC_QbsA-2lky1hKC4-161" vertex="1">
                    <mxGeometry y="26" width="140" height="26" as="geometry"/>
                </mxCell>
                <mxCell id="XoRHC_QbsA-2lky1hKC4-163" value="Texture rasterizedText" style="text;strokeColor=none;fillColor=none;align=left;verticalAlign=top;spacingLeft=4;spacingRight=4;overflow=hidden;rotatable=0;points=[[0,0.5],[1,0.5]];portConstraint=eastwest;whiteSpace=wrap;html=1;" parent="XoRHC_QbsA-2lky1hKC4-161" vertex="1">
                    <mxGeometry y="52" width="140" height="26" as="geometry"/>
                </mxCell>
                <mxCell id="Bb4IU9_xLz3iMsSqxkmi-7" style="edgeStyle=orthogonalEdgeStyle;rounded=0;orthogonalLoop=1;jettySize=auto;html=1;" parent="1" source="Bb4IU9_xLz3iMsSqxkmi-3" target="XoRHC_QbsA-2lky1hKC4-141" edge="1">
                    <mxGeometry relative="1" as="geometry">
                        <mxPoint x="380" y="830" as="targetPoint"/>
                        <Array as="points">
                            <mxPoint x="730" y="850"/>
                            <mxPoint x="340" y="850"/>
                        </Array>
                    </mxGeometry>
                </mxCell>
                <mxCell id="Bb4IU9_xLz3iMsSqxkmi-3" value="translatablePanel" style="swimlane;fontStyle=0;childLayout=stackLayout;horizontal=1;startSize=37;horizontalStack=0;resizeParent=1;resizeParentMax=0;resizeLast=0;collapsible=1;marginBottom=0;whiteSpace=wrap;html=1;" parent="1" vertex="1">
                    <mxGeometry x="660" y="950" width="140" height="67" as="geometry"/>
                </mxCell>
                <mxCell id="Bb4IU9_xLz3iMsSqxkmi-12" style="edgeStyle=orthogonalEdgeStyle;rounded=0;orthogonalLoop=1;jettySize=auto;html=1;" parent="1" source="Bb4IU9_xLz3iMsSqxkmi-9" target="Bb4IU9_xLz3iMsSqxkmi-3" edge="1">
                    <mxGeometry relative="1" as="geometry"/>
                </mxCell>
                <mxCell id="Bb4IU9_xLz3iMsSqxkmi-9" value="resizablePanel" style="swimlane;fontStyle=0;childLayout=stackLayout;horizontal=1;startSize=37;horizontalStack=0;resizeParent=1;resizeParentMax=0;resizeLast=0;collapsible=1;marginBottom=0;whiteSpace=wrap;html=1;" parent="1" vertex="1">
                    <mxGeometry x="580" y="1103" width="140" height="67" as="geometry">
                        <mxRectangle x="580" y="1103" width="120" height="37" as="alternateBounds"/>
                    </mxGeometry>
                </mxCell>
                <mxCell id="15" value="Vector2 minSize" style="text;html=1;align=center;verticalAlign=middle;resizable=0;points=[];autosize=1;strokeColor=none;fillColor=none;" vertex="1" parent="Bb4IU9_xLz3iMsSqxkmi-9">
                    <mxGeometry y="37" width="140" height="30" as="geometry"/>
                </mxCell>
                <mxCell id="Bb4IU9_xLz3iMsSqxkmi-16" style="edgeStyle=orthogonalEdgeStyle;rounded=0;orthogonalLoop=1;jettySize=auto;html=1;" parent="1" source="Bb4IU9_xLz3iMsSqxkmi-15" target="Bb4IU9_xLz3iMsSqxkmi-3" edge="1">
                    <mxGeometry relative="1" as="geometry">
                        <Array as="points">
                            <mxPoint x="850" y="1060"/>
                            <mxPoint x="760" y="1060"/>
                        </Array>
                    </mxGeometry>
                </mxCell>
                <mxCell id="Bb4IU9_xLz3iMsSqxkmi-15" value="Node" style="swimlane;fontStyle=0;childLayout=stackLayout;horizontal=1;startSize=37;horizontalStack=0;resizeParent=1;resizeParentMax=0;resizeLast=0;collapsible=1;marginBottom=0;whiteSpace=wrap;html=1;" parent="1" vertex="1">
                    <mxGeometry x="780" y="1103" width="140" height="67" as="geometry"/>
                </mxCell>
                <mxCell id="Bb4IU9_xLz3iMsSqxkmi-17" style="edgeStyle=orthogonalEdgeStyle;rounded=0;orthogonalLoop=1;jettySize=auto;html=1;" parent="1" source="XoRHC_QbsA-2lky1hKC4-104" target="XoRHC_QbsA-2lky1hKC4-96" edge="1">
                    <mxGeometry relative="1" as="geometry"/>
                </mxCell>
                <mxCell id="Bb4IU9_xLz3iMsSqxkmi-18" style="edgeStyle=orthogonalEdgeStyle;rounded=0;orthogonalLoop=1;jettySize=auto;html=1;" parent="1" source="XoRHC_QbsA-2lky1hKC4-105" target="XoRHC_QbsA-2lky1hKC4-96" edge="1">
                    <mxGeometry relative="1" as="geometry">
                        <Array as="points">
                            <mxPoint x="-170" y="1067"/>
                        </Array>
                    </mxGeometry>
                </mxCell>
                <mxCell id="Bb4IU9_xLz3iMsSqxkmi-19" style="edgeStyle=orthogonalEdgeStyle;rounded=0;orthogonalLoop=1;jettySize=auto;html=1;" parent="1" source="XoRHC_QbsA-2lky1hKC4-106" target="XoRHC_QbsA-2lky1hKC4-96" edge="1">
                    <mxGeometry relative="1" as="geometry">
                        <Array as="points">
                            <mxPoint x="-180" y="1119"/>
                        </Array>
                    </mxGeometry>
                </mxCell>
                <mxCell id="3" style="edgeStyle=orthogonalEdgeStyle;html=1;rounded=0;" parent="1" source="6" target="XoRHC_QbsA-2lky1hKC4-141" edge="1">
                    <mxGeometry relative="1" as="geometry">
                        <mxPoint x="1050" y="950" as="sourcePoint"/>
                        <Array as="points">
                            <mxPoint x="370" y="830"/>
                        </Array>
                    </mxGeometry>
                </mxCell>
                <mxCell id="6" value="split" style="swimlane;fontStyle=0;childLayout=stackLayout;horizontal=1;startSize=26;fillColor=none;horizontalStack=0;resizeParent=1;resizeParentMax=0;resizeLast=0;collapsible=1;marginBottom=0;whiteSpace=wrap;html=1;" parent="1" vertex="1">
                    <mxGeometry x="950" y="950" width="240" height="104" as="geometry"/>
                </mxCell>
                <mxCell id="7" value="type : VERTICAL | HORIZONTAL" style="text;strokeColor=none;fillColor=none;align=left;verticalAlign=top;spacingLeft=4;spacingRight=4;overflow=hidden;rotatable=0;points=[[0,0.5],[1,0.5]];portConstraint=eastwest;whiteSpace=wrap;html=1;" parent="6" vertex="1">
                    <mxGeometry y="26" width="240" height="26" as="geometry"/>
                </mxCell>
                <mxCell id="8" value="&lt;div style=&quot;text-align: center;&quot;&gt;UIComponent firstSide&lt;/div&gt;" style="text;strokeColor=none;fillColor=none;align=left;verticalAlign=top;spacingLeft=4;spacingRight=4;overflow=hidden;rotatable=0;points=[[0,0.5],[1,0.5]];portConstraint=eastwest;whiteSpace=wrap;html=1;" parent="6" vertex="1">
                    <mxGeometry y="52" width="240" height="26" as="geometry"/>
                </mxCell>
                <mxCell id="9" value="UIComponent secondSide" style="text;strokeColor=none;fillColor=none;align=left;verticalAlign=top;spacingLeft=4;spacingRight=4;overflow=hidden;rotatable=0;points=[[0,0.5],[1,0.5]];portConstraint=eastwest;whiteSpace=wrap;html=1;" parent="6" vertex="1">
                    <mxGeometry y="78" width="240" height="26" as="geometry"/>
                </mxCell>
                <mxCell id="10" value="NativeUI relies a lot on boundingBox.&lt;div&gt;BoundingBox define a rectangle&lt;/div&gt;&lt;div&gt;in the space in which a component&lt;/div&gt;&lt;div&gt;and its children will be restrained.&lt;/div&gt;&lt;div&gt;Every component is inside the&lt;/div&gt;&lt;div&gt;parent&#39;s rectangle&lt;/div&gt;" style="ellipse;shape=cloud;whiteSpace=wrap;html=1;" parent="1" vertex="1">
                    <mxGeometry x="-620" y="380" width="280" height="230" as="geometry"/>
                </mxCell>
                <mxCell id="17" style="edgeStyle=orthogonalEdgeStyle;html=1;" edge="1" parent="1" source="16" target="6">
                    <mxGeometry relative="1" as="geometry"/>
                </mxCell>
                <mxCell id="22" style="edgeStyle=orthogonalEdgeStyle;html=1;" edge="1" parent="1" source="19" target="XoRHC_QbsA-2lky1hKC4-161">
                    <mxGeometry relative="1" as="geometry">
                        <Array as="points">
                            <mxPoint x="1220" y="1401"/>
                            <mxPoint x="1220" y="750"/>
                            <mxPoint x="570" y="750"/>
                        </Array>
                    </mxGeometry>
                </mxCell>
                <mxCell id="25" style="edgeStyle=orthogonalEdgeStyle;html=1;" edge="1" parent="1" source="20" target="XoRHC_QbsA-2lky1hKC4-99">
                    <mxGeometry relative="1" as="geometry">
                        <Array as="points">
                            <mxPoint x="490" y="1371"/>
                            <mxPoint x="490" y="1054"/>
                        </Array>
                    </mxGeometry>
                </mxCell>
            </root>
        </mxGraphModel>
    </diagram>
</mxfile>